HIERARCHY
ROOT Hips
{
	OFFSET -0.001795 -0.223333 0.028219
	CHANNELS 6 Xposition Yposition Zposition Zrotation Yrotation Xrotation 
	JOINT LeftUpLeg
	{
		OFFSET 0.069520 -0.091406 -0.006815
		CHANNELS 3 Zrotation Yrotation Xrotation
		JOINT LeftLeg
		{
			OFFSET 0.034277 -0.375199 -0.004496
			CHANNELS 3 Zrotation Yrotation Xrotation
			JOINT LeftFoot
			{
				OFFSET -0.013596 -0.397961 -0.043693
				CHANNELS 3 Zrotation Yrotation Xrotation
				JOINT LeftToe
				{
					OFFSET 0.026358 -0.055791 0.119288
					CHANNELS 3 Zrotation Yrotation Xrotation
					End Site
					{
						OFFSET 0.000000 0.000000 0.000000
					}
				}
			}
		}
	}
	JOINT RightUpLeg
	{
		OFFSET -0.067670 -0.090522 -0.004320
		CHANNELS 3 Zrotation Yrotation Xrotation
		JOINT RightLeg
		{
			OFFSET -0.038290 -0.382569 -0.008850
			CHANNELS 3 Zrotation Yrotation Xrotation
			JOINT RightFoot
			{
				OFFSET 0.015774 -0.398415 -0.042312
				CHANNELS 3 Zrotation Yrotation Xrotation
				JOINT RightToe
				{
					OFFSET -0.025372 -0.048144 0.123348
					CHANNELS 3 Zrotation Yrotation Xrotation
					End Site
					{
						OFFSET 0.000000 0.000000 0.000000
					}
				}
			}
		}
	}
	JOINT Spine
	{
		OFFSET -0.002533 0.108963 -0.026696
		CHANNELS 3 Zrotation Yrotation Xrotation
		JOINT Spine1
		{
			OFFSET 0.005487 0.135180 0.001092
			CHANNELS 3 Zrotation Yrotation Xrotation
			JOINT Spine2
			{
				OFFSET 0.001457 0.052922 0.025425
				CHANNELS 3 Zrotation Yrotation Xrotation
				JOINT Neck
				{
					OFFSET -0.002778 0.213870 -0.042857
					CHANNELS 3 Zrotation Yrotation Xrotation
					JOINT Head
					{
						OFFSET 0.005152 0.064970 0.051349
						CHANNELS 3 Zrotation Yrotation Xrotation
						End Site
						{
							OFFSET 0.000000 0.000000 0.000000
						}
					}
				}
				JOINT LeftShoulder
				{
					OFFSET 0.078845 0.121749 -0.034090
					CHANNELS 3 Zrotation Yrotation Xrotation
					JOINT LeftArm
					{
						OFFSET 0.090977 0.030469 -0.008868
						CHANNELS 3 Zrotation Yrotation Xrotation
						JOINT LeftForeArm
						{
							OFFSET 0.259612 -0.012772 -0.027456
							CHANNELS 3 Zrotation Yrotation Xrotation
							JOINT LeftHand
							{
								OFFSET 0.249234 0.008986 -0.001171
								CHANNELS 3 Zrotation Yrotation Xrotation
								End Site
								{
									OFFSET 0.000000 0.000000 0.000000
								}
							}
						}
					}
				}
				JOINT RightShoulder
				{
					OFFSET -0.081759 0.118833 -0.038615
					CHANNELS 3 Zrotation Yrotation Xrotation
					JOINT RightArm
					{
						OFFSET -0.096012 0.032551 -0.009143
						CHANNELS 3 Zrotation Yrotation Xrotation
						JOINT RightForeArm
						{
							OFFSET -0.253742 -0.013329 -0.021401
							CHANNELS 3 Zrotation Yrotation Xrotation
							JOINT RightHand
							{
								OFFSET -0.255298 0.007772 -0.005559
								CHANNELS 3 Zrotation Yrotation Xrotation
								End Site
								{
									OFFSET 0.000000 0.000000 0.000000
								}
							}
						}
					}
				}
			}
		}
	}
}
MOTION
Frames: 18
Frame Time: 0.050000
0.000000 0.930614 0.000000 -1.144898 -4.983112 -0.700094 3.765012 0.042042 0.636672 -5.469234 0.764057 4.889184 5.506506 11.760525 0.655856 0.000000 0.000000 0.000000 2.207725 -0.172306 0.942083 3.067036 -0.228687 3.857776 -3.671978 -9.357917 0.840896 0.000000 0.000000 0.000000 3.713120 0.151760 -2.240040 -1.492813 0.707492 -2.168556 -1.659427 3.560317 10.788887 4.660878 -1.688934 -16.060101 0.000000 0.000000 0.000000 -26.021397 -9.925431 3.421921 -47.031656 -6.484168 -3.579358 -8.302691 -34.243935 3.925578 0.000000 0.000000 0.000000 26.653724 4.976698 1.192245 56.697960 0.544626 -6.011471 3.484160 26.426354 1.803754 0.000000 0.000000 0.000000 
-0.000383 0.931880 0.000485 -1.801856 -5.655848 -0.659638 4.844058 0.076652 1.198641 -6.048774 0.839893 3.589559 5.910472 12.720011 1.694205 0.000000 0.000000 0.000000 3.124332 -0.236906 1.181506 3.137877 -0.241356 3.289493 -3.478253 -9.012733 1.187616 0.000000 0.000000 0.000000 4.521780 0.227657 -2.947434 -1.718638 0.813613 -1.338758 -1.477297 4.576463 10.367685 4.450144 -1.507290 -15.709315 0.000000 0.000000 0.000000 -24.939518 -10.601060 3.571080 -44.725364 -7.354454 -3.001444 -11.353057 -42.175390 6.009974 0.000000 0.000000 0.000000 27.069396 5.406924 1.700514 56.240581 0.478493 -6.021465 3.546461 25.913678 1.797513 0.000000 0.000000 0.000000 
-0.000836 0.933245 0.000529 -2.708788 -5.529285 -1.091812 5.508809 0.105627 1.789488 -5.263062 0.703113 3.118420 5.974839 12.953219 2.718091 0.000000 0.000000 0.000000 3.763365 -0.311686 1.618159 3.496155 -0.285932 3.374682 -3.284348 -8.919911 2.178683 0.000000 0.000000 0.000000 5.060496 0.212920 -2.552444 -1.795899 0.843861 -2.180424 -1.019630 5.571185 10.280719 4.005036 -1.085304 -15.866762 0.000000 0.000000 0.000000 -23.292552 -10.439958 3.129027 -41.665345 -11.506221 -1.361285 -13.742342 -53.857101 8.930744 0.000000 0.000000 0.000000 26.546344 4.573080 1.569432 55.835221 -1.007476 -6.744059 4.374543 26.809376 2.107730 0.000000 0.000000 0.000000 
-0.001530 0.931744 0.000671 -3.327048 -5.611108 -0.624447 6.077829 0.079364 1.435651 -5.531600 0.747965 3.265212 6.869776 14.659593 2.260304 0.000000 0.000000 0.000000 5.125668 -0.335504 1.358690 3.413218 -0.269531 3.694000 -4.197217 -10.786842 1.520703 0.000000 0.000000 0.000000 5.600362 0.373839 -4.176856 -1.587912 0.747398 -2.200744 -0.811108 6.463336 10.983410 4.475709 -1.235421 -16.358992 0.000000 0.000000 0.000000 -22.525337 -11.218797 3.357488 -37.885824 -16.673618 0.253423 -4.778701 -69.802767 5.730580 0.000000 0.000000 0.000000 27.345117 5.194893 2.307147 55.073242 -1.088871 -6.840523 3.765814 27.201700 2.046373 0.000000 0.000000 0.000000 
-0.002137 0.931373 0.001044 -3.131517 -4.770783 -0.470732 5.922607 0.051150 1.127136 -5.620998 0.749408 3.365761 6.924354 14.803102 3.073557 0.000000 0.000000 0.000000 5.004413 -0.359920 1.576735 3.911269 -0.341443 3.631632 -4.899176 -12.505977 1.910281 0.000000 0.000000 0.000000 5.691599 0.448275 -4.984357 -1.199739 0.575526 -2.736377 -1.267895 6.920489 11.142727 4.418489 -1.137205 -15.962208 0.000000 0.000000 0.000000 -20.214652 -12.211746 3.667125 -33.727874 -22.565755 1.687524 54.998485 -81.434838 -45.585683 0.000000 0.000000 0.000000 27.479214 4.723503 2.391177 55.292267 -1.493859 -7.146972 2.321817 26.654977 1.730704 0.000000 0.000000 0.000000 
-0.002796 0.930967 0.001900 -2.977230 -3.658291 -0.716444 5.916230 0.035810 1.097561 -5.811289 0.764482 3.631162 6.779087 14.493985 2.910421 0.000000 0.000000 0.000000 5.451059 -0.522253 2.638622 3.954162 -0.367611 2.825753 -5.863544 -14.720491 2.035531 0.000000 0.000000 0.000000 5.284891 0.528764 -6.066665 -0.899531 0.449462 -2.694174 -1.364779 6.553592 11.246201 3.967677 -0.988823 -14.664725 0.000000 0.000000 0.000000 -18.089150 -13.579897 4.365409 -28.026314 -28.342025 2.354217 109.329727 -72.654183 -89.151090 0.000000 0.000000 0.000000 27.048937 5.543511 3.017418 55.654933 -1.885328 -7.375449 2.465585 26.156837 1.718847 0.000000 0.000000 0.000000 
-0.003377 0.930965 0.002351 -3.094404 -3.041512 -0.775387 6.216247 0.015230 0.882865 -5.828094 0.763559 4.000174 6.856744 14.634337 2.944169 0.000000 0.000000 0.000000 5.419976 -0.569648 2.994814 4.091447 -0.394805 2.334096 -5.805072 -14.695942 2.519386 0.000000 0.000000 0.000000 5.167141 0.545113 -6.354077 -0.845067 0.431866 -2.825690 -1.310785 6.501756 10.826743 3.205938 -0.470149 -14.570597 0.000000 0.000000 0.000000 -16.335735 -14.447618 4.737502 -22.126761 -33.783351 2.323606 118.644491 -61.144509 -86.780695 0.000000 0.000000 0.000000 27.715467 5.629528 3.189235 55.400890 -2.488294 -7.614951 1.924678 26.466810 1.628269 0.000000 0.000000 0.000000 
-0.003692 0.930624 0.002946 -2.962101 -2.375361 -0.524417 6.517484 -0.023391 0.307872 -6.260926 0.828730 4.495911 6.809107 14.506107 2.711540 0.000000 0.000000 0.000000 5.734834 -0.590174 3.014801 3.553831 -0.335492 2.466929 -5.418652 -13.770743 2.072586 0.000000 0.000000 0.000000 4.871829 0.554586 -6.744679 -0.433819 0.260268 -3.343025 -1.347283 6.257717 11.005136 2.968459 -0.364774 -14.065875 0.000000 0.000000 0.000000 -13.874895 -15.376041 5.174504 -16.071888 -38.565122 1.480718 119.113004 -51.853330 -76.385242 0.000000 0.000000 0.000000 27.519458 5.524087 3.169501 55.441156 -2.388735 -7.591293 2.014690 26.753246 1.679032 0.000000 0.000000 0.000000 
-0.003932 0.930464 0.003160 -2.727377 -2.901973 -0.745203 6.221060 -0.001459 0.514341 -6.263586 0.852251 4.938290 7.141794 15.131688 2.477043 0.000000 0.000000 0.000000 5.659565 -0.624090 3.284059 3.577725 -0.329339 2.851442 -5.385692 -13.552058 1.434733 0.000000 0.000000 0.000000 5.081771 0.532404 -6.285325 -0.635748 0.348635 -3.645807 -0.982253 6.145117 10.884318 2.000380 0.204514 -13.931437 0.000000 0.000000 0.000000 -11.310239 -15.175673 5.161654 -11.204822 -42.293588 0.355055 120.308360 -44.681764 -68.377836 0.000000 0.000000 0.000000 26.386890 5.808145 3.113410 56.219457 -2.923204 -7.840939 2.193261 28.257080 1.817997 0.000000 0.000000 0.000000 
-0.004116 0.930005 0.003489 -2.643680 -2.761507 -0.549499 6.280238 -0.017677 0.232386 -6.888176 0.955780 5.104580 7.714525 16.224171 2.564352 0.000000 0.000000 0.000000 5.699898 -0.645127 3.395321 3.933970 -0.376712 2.560275 -5.802131 -14.438600 1.055787 0.000000 0.000000 0.000000 5.098859 0.539473 -6.402762 -0.461168 0.279039 -4.056439 -0.905859 5.887716 11.274812 1.672747 0.410423 -14.073198 0.000000 0.000000 0.000000 -8.768052 -15.431793 5.283973 -8.066653 -45.085044 -0.614811 122.640162 -37.866662 -61.383365 0.000000 0.000000 0.000000 25.730026 6.151689 3.247107 56.661194 -2.719769 -7.803695 2.445977 28.972968 1.931997 0.000000 0.000000 0.000000 
-0.004289 0.930528 0.003727 -2.285606 -3.633513 -0.499865 5.864401 -0.018769 -0.133471 -6.979928 1.012073 5.684707 8.254561 17.283513 2.939495 0.000000 0.000000 0.000000 5.303673 -0.619093 3.346046 3.613949 -0.327566 2.647746 -5.626000 -13.914384 0.694170 0.000000 0.000000 0.000000 5.160645 0.525326 -6.144526 -0.700540 0.377768 -4.600951 -0.797422 6.249875 11.374741 1.536682 0.540364 -14.635842 0.000000 0.000000 0.000000 -7.522338 -15.490242 5.312928 -4.924022 -46.714077 -1.698194 122.137543 -34.076840 -55.405832 0.000000 0.000000 0.000000 24.837307 6.700480 3.493000 57.573646 -2.827599 -7.940866 2.496660 29.318684 1.966243 0.000000 0.000000 0.000000 
-0.004425 0.930697 0.003994 -1.911661 -3.818587 -0.666153 5.622280 -0.015930 -0.177740 -6.954813 1.013517 5.690828 8.289982 17.362450 3.207798 0.000000 0.000000 0.000000 5.000750 -0.661063 3.779971 3.699861 -0.340173 2.232818 -5.747815 -14.119210 0.399669 0.000000 0.000000 0.000000 5.011202 0.481760 -5.709028 -0.969225 0.498190 -5.523078 -0.515029 6.051444 12.310312 1.030478 0.824938 -14.593636 0.000000 0.000000 0.000000 -6.442842 -15.114849 5.201880 -3.687938 -48.287699 -2.242878 122.586121 -32.056264 -52.668560 0.000000 0.000000 0.000000 24.295574 6.890144 3.491944 57.980074 -2.782607 -8.030428 2.990079 29.550567 2.103760 0.000000 0.000000 0.000000 
-0.004530 0.930700 0.004241 -1.755325 -4.209274 -0.909660 5.554496 0.015584 0.329965 -7.061179 1.039402 5.597615 8.583618 17.927177 3.313453 0.000000 0.000000 0.000000 4.736893 -0.665193 3.943390 3.931093 -0.363995 2.105311 -5.705278 -13.983873 0.349318 0.000000 0.000000 0.000000 5.110649 0.470067 -5.459597 -0.929599 0.474976 -5.530326 -0.606332 5.954299 12.631628 1.084320 0.767594 -14.730654 0.000000 0.000000 0.000000 -6.307965 -14.790959 5.112063 -2.846635 -48.399497 -2.541711 123.096803 -31.534194 -52.228833 0.000000 0.000000 0.000000 23.691367 6.765775 3.293248 58.216080 -2.343258 -7.852121 3.647407 29.584787 2.259507 0.000000 0.000000 0.000000 
-0.004672 0.930543 0.004309 -1.845306 -4.255529 -1.103602 5.728588 0.018683 0.325926 -7.209234 1.070966 5.720009 8.915517 18.543312 3.523034 0.000000 0.000000 0.000000 5.042985 -0.692769 4.030272 3.748268 -0.341331 2.307411 -5.505656 -13.507175 0.300415 0.000000 0.000000 0.000000 5.338217 0.485625 -5.472479 -0.703049 0.379622 -5.637643 -0.671476 6.197052 13.168279 1.416500 0.569661 -14.642554 0.000000 0.000000 0.000000 -5.562078 -15.094082 5.192611 -2.646577 -48.091223 -2.642624 122.409176 -31.797473 -52.163688 0.000000 0.000000 0.000000 23.419774 6.845789 3.430443 58.370346 -2.217672 -7.872508 3.197979 29.779778 2.191134 0.000000 0.000000 0.000000 
-0.004817 0.930724 0.004312 -2.005432 -4.150162 -1.150711 5.962353 0.016888 0.305297 -7.363303 1.095393 5.734197 9.191452 19.047311 3.546478 0.000000 0.000000 0.000000 5.135834 -0.729594 4.259864 3.849127 -0.357901 1.895541 -5.648346 -13.914591 0.619645 0.000000 0.000000 0.000000 5.249366 0.470678 -5.354717 -0.657303 0.363568 -5.763150 -0.458599 6.029674 13.171367 1.552692 0.491230 -14.928560 0.000000 0.000000 0.000000 -5.889573 -15.299301 5.296650 -2.394692 -47.187684 -2.647985 122.849008 -32.724571 -53.907029 0.000000 0.000000 0.000000 23.633345 7.196994 3.605052 58.027035 -2.555225 -7.984512 2.697724 29.948104 2.067609 0.000000 0.000000 0.000000 
-0.005008 0.930563 0.004319 -2.043259 -3.898123 -0.956354 6.280011 -0.000526 0.033306 -7.647643 1.135440 5.675329 9.528963 19.649873 3.842414 0.000000 0.000000 0.000000 5.087440 -0.685766 3.947543 3.829435 -0.361074 1.511938 -5.922498 -14.632725 0.984218 0.000000 0.000000 0.000000 4.985917 0.482868 -5.675792 -0.381501 0.254357 -5.951693 -0.378570 5.956330 13.385488 1.548253 0.532646 -15.282605 0.000000 0.000000 0.000000 -6.022531 -15.531576 5.390602 -1.392786 -46.357826 -2.932193 122.182978 -33.204705 -54.072348 0.000000 0.000000 0.000000 24.328736 7.405270 3.792633 57.481613 -2.980771 -8.153722 2.129394 30.441791 1.968904 0.000000 0.000000 0.000000 
-0.005312 0.930226 0.004213 -2.048851 -4.100447 -1.104508 6.480348 -0.003739 -0.218881 -7.827741 1.197560 6.259519 9.779150 20.096359 4.161067 0.000000 0.000000 0.000000 5.234053 -0.646359 3.618871 3.611062 -0.328087 2.220466 -6.033386 -14.843164 0.812914 0.000000 0.000000 0.000000 5.130108 0.479454 -5.521415 -0.411003 0.259053 -5.643491 -0.368562 6.064358 13.153339 1.394156 0.633997 -15.286242 0.000000 0.000000 0.000000 -6.012844 -15.418311 5.341949 -0.418146 -46.160181 -3.227562 121.526546 -33.517953 -53.971135 0.000000 0.000000 0.000000 24.443950 7.347115 3.752836 56.965356 -3.137662 -8.143151 2.662715 31.445809 2.186325 0.000000 0.000000 0.000000 
-0.005642 0.929898 0.004114 -2.228253 -4.246475 -1.367221 6.889935 -0.003486 -0.485212 -7.942059 1.258951 7.085049 9.590832 19.762865 3.774678 0.000000 0.000000 0.000000 5.462815 -0.640275 3.512248 3.767510 -0.338314 2.921522 -5.940378 -14.557764 0.470910 0.000000 0.000000 0.000000 5.250715 0.463608 -5.229591 -0.285820 0.198197 -5.240646 -0.455265 6.315508 12.838297 1.561095 0.486137 -14.607546 0.000000 0.000000 0.000000 -6.188714 -15.322253 5.279528 0.201510 -46.146647 -3.430352 121.245069 -34.193958 -54.800648 0.000000 0.000000 0.000000 24.964582 7.345542 3.834458 56.169042 -3.241875 -8.085865 2.617437 31.846125 2.210735 0.000000 0.000000 0.000000 
